<svg xmlns="http://www.w3.org/2000/svg" width="1060" height="560" viewBox="0 0 1060 560" role="img" aria-labelledby="title desc">
<title id="title">Figure A1. SYNTHETIC P1 partial-record enclosure</title>
<desc id="desc">Ten 100 ms records reporting 10 W, window 0.55 to 1.45 s. Point 9.0 J; timing envelope 8.8 to 9.2 J; nonnegative fixed-window enclosure 8 to 10 J. Not measured evidence.</desc>
<rect width="1060" height="560" fill="white"/>
<g font-family="Arial, sans-serif" font-size="17" fill="#17232d">
<text x="40" y="36" font-size="23" font-weight="bold">Figure A1 · SYNTHETIC P1</text>
<text x="40" y="67">A · Reported intervals: 100 ms × 10 W = 1 J each</text>
<rect x="130" y="100" width="80" height="70" fill="#f4d09b" stroke="#17232d"/>
<text x="170" y="142" text-anchor="middle">R1</text>
<rect x="210" y="100" width="80" height="70" fill="#c5dfeb" stroke="#17232d"/>
<text x="250" y="142" text-anchor="middle">R2</text>
<rect x="290" y="100" width="80" height="70" fill="#c5dfeb" stroke="#17232d"/>
<text x="330" y="142" text-anchor="middle">R3</text>
<rect x="370" y="100" width="80" height="70" fill="#c5dfeb" stroke="#17232d"/>
<text x="410" y="142" text-anchor="middle">R4</text>
<rect x="450" y="100" width="80" height="70" fill="#c5dfeb" stroke="#17232d"/>
<text x="490" y="142" text-anchor="middle">R5</text>
<rect x="530" y="100" width="80" height="70" fill="#c5dfeb" stroke="#17232d"/>
<text x="570" y="142" text-anchor="middle">R6</text>
<rect x="610" y="100" width="80" height="70" fill="#c5dfeb" stroke="#17232d"/>
<text x="650" y="142" text-anchor="middle">R7</text>
<rect x="690" y="100" width="80" height="70" fill="#c5dfeb" stroke="#17232d"/>
<text x="730" y="142" text-anchor="middle">R8</text>
<rect x="770" y="100" width="80" height="70" fill="#c5dfeb" stroke="#17232d"/>
<text x="810" y="142" text-anchor="middle">R9</text>
<rect x="850" y="100" width="80" height="70" fill="#f4d09b" stroke="#17232d"/>
<text x="890" y="142" text-anchor="middle">R10</text>
<line x1="170" y1="85" x2="170" y2="210" stroke="#653b86" stroke-width="2" stroke-dasharray="6 4"/>
<text x="170" y="235" text-anchor="middle" fill="#653b86">0.55</text>
<line x1="890" y1="85" x2="890" y2="210" stroke="#653b86" stroke-width="2" stroke-dasharray="6 4"/>
<text x="890" y="235" text-anchor="middle" fill="#653b86">1.45</text>
<line x1="170" y1="88" x2="890" y2="88" stroke="#653b86" stroke-width="4"/>
<text x="530" y="205" text-anchor="middle" fill="#653b86">Fixed window [0.55, 1.45] s</text>
<line x1="130" y1="255" x2="930" y2="255" stroke="#17232d"/>
<line x1="130" y1="250" x2="130" y2="260" stroke="#17232d"/>
<text x="130" y="280" text-anchor="middle">0.5</text>
<line x1="210" y1="250" x2="210" y2="260" stroke="#17232d"/>
<text x="210" y="280" text-anchor="middle">0.6</text>
<line x1="290" y1="250" x2="290" y2="260" stroke="#17232d"/>
<text x="290" y="280" text-anchor="middle">0.7</text>
<line x1="370" y1="250" x2="370" y2="260" stroke="#17232d"/>
<text x="370" y="280" text-anchor="middle">0.8</text>
<line x1="450" y1="250" x2="450" y2="260" stroke="#17232d"/>
<text x="450" y="280" text-anchor="middle">0.9</text>
<line x1="530" y1="250" x2="530" y2="260" stroke="#17232d"/>
<text x="530" y="280" text-anchor="middle">1.0</text>
<line x1="610" y1="250" x2="610" y2="260" stroke="#17232d"/>
<text x="610" y="280" text-anchor="middle">1.1</text>
<line x1="690" y1="250" x2="690" y2="260" stroke="#17232d"/>
<text x="690" y="280" text-anchor="middle">1.2</text>
<line x1="770" y1="250" x2="770" y2="260" stroke="#17232d"/>
<text x="770" y="280" text-anchor="middle">1.3</text>
<line x1="850" y1="250" x2="850" y2="260" stroke="#17232d"/>
<text x="850" y="280" text-anchor="middle">1.4</text>
<line x1="930" y1="250" x2="930" y2="260" stroke="#17232d"/>
<text x="930" y="280" text-anchor="middle">1.5</text>
<text x="970" y="260">Time (s)</text>
<text x="40" y="324">B · Energy assigned to the window</text>
<text x="40" y="371">Nonnegative [8, 10] J</text>
<line x1="330" y1="365" x2="830" y2="365" stroke="#b56b13" stroke-width="7"/>
<line x1="330" y1="355" x2="330" y2="375" stroke="#b56b13" stroke-width="2"/>
<line x1="830" y1="355" x2="830" y2="375" stroke="#b56b13" stroke-width="2"/>
<text x="40" y="416">Timing [8.8, 9.2] J</text>
<line x1="530" y1="410" x2="630" y2="410" stroke="#187295" stroke-width="7"/>
<line x1="530" y1="400" x2="530" y2="420" stroke="#187295" stroke-width="2"/>
<line x1="630" y1="400" x2="630" y2="420" stroke="#187295" stroke-width="2"/>
<text x="40" y="461">Point 9.0 J</text>
<circle cx="580" cy="455" r="7" fill="#17232d"/>
<line x1="305" y1="490" x2="855" y2="490" stroke="#17232d"/>
<line x1="330" y1="485" x2="330" y2="495" stroke="#17232d"/>
<text x="330" y="517" text-anchor="middle">8</text>
<line x1="530" y1="485" x2="530" y2="495" stroke="#17232d"/>
<text x="530" y="517" text-anchor="middle">8.8</text>
<line x1="580" y1="485" x2="580" y2="495" stroke="#17232d"/>
<text x="580" y="517" text-anchor="middle">9</text>
<line x1="630" y1="485" x2="630" y2="495" stroke="#17232d"/>
<text x="630" y="517" text-anchor="middle">9.2</text>
<line x1="830" y1="485" x2="830" y2="495" stroke="#17232d"/>
<text x="830" y="517" text-anchor="middle">10</text>
<text x="890" y="497">Energy (J)</text>
<text x="40" y="549" font-size="15">SYNTHETIC · Fixed-window allocation diagnostic; never composed into any bound.</text>
</g></svg>
